<?xml version="1.0" standalone="no"?>
<!DOCTYPE svg PUBLIC "-//W3C//DTD SVG 20010904//EN"
 "http://www.w3.org/TR/2001/REC-SVG-20010904/DTD/svg10.dtd">
<svg version="1.0" xmlns="http://www.w3.org/2000/svg"
 width="134.000000pt" height="134.000000pt" viewBox="0 0 134.000000 134.000000"
 preserveAspectRatio="xMidYMid meet">
<metadata>
Created by potrace 1.14, written by Peter Selinger 2001-2017
</metadata>
<g transform="translate(0.000000,134.000000) scale(0.100000,-0.100000)"
fill="#000000" stroke="none">
<path d="M360 1013 c-8 -3 -23 -14 -33 -24 -19 -17 -11 -26 271 -307 159 -160
299 -295 311 -302 43 -23 74 -3 214 139 76 76 138 142 139 147 5 33 4 64 -3
64 -5 0 -9 4 -9 9 0 12 -246 258 -270 271 -46 24 -68 13 -180 -97 -61 -59
-117 -111 -125 -115 -10 -6 -43 21 -116 92 -135 134 -149 142 -199 123z m667
-215 c41 -40 79 -81 84 -90 14 -26 -144 -188 -175 -180 -27 7 -166 146 -166
167 0 19 149 174 169 175 7 0 47 -33 88 -72z"/>
<path d="M185 847 c-44 -43 -88 -91 -97 -106 -36 -53 -28 -68 122 -217 77 -76
149 -143 159 -148 36 -16 68 3 164 98 l95 94 -21 20 c-56 50 -86 46 -153 -20
-23 -23 -49 -43 -57 -44 -8 -1 -54 37 -101 86 l-86 87 70 71 c78 79 78 81 16
133 l-31 26 -80 -80z"/>
</g>
</svg>
